<svg width="217" height="101" viewBox="0 0 217 101" fill="none" xmlns="http://www.w3.org/2000/svg">
<g clip-path="url(#clip0_11_281)">
<g clip-path="url(#clip1_11_281)">
<g clip-path="url(#clip2_11_281)">
<path d="M35.2397 50.9317C36.1433 50.1771 36.8699 49.2331 37.3681 48.1664C37.8662 47.0998 38.1238 45.9367 38.1225 44.7595C38.1236 43.5821 37.8658 42.4189 37.3674 41.3523C36.869 40.2857 36.1421 39.3417 35.2383 38.5872C35.4402 38.4884 35.6336 38.3839 35.8199 38.2682C36.9767 37.551 38.304 37.156 39.6647 37.1239C41.0253 37.0919 42.3698 37.424 43.559 38.086C44.7482 38.7479 45.7389 39.7156 46.4287 40.8889C47.1184 42.0622 47.4821 43.3985 47.4821 44.7595C47.4821 46.1205 47.1184 47.4568 46.4287 48.6301C45.7389 49.8034 44.7482 50.7711 43.559 51.433C42.3698 52.0949 41.0253 52.427 39.6647 52.395C38.304 52.363 36.9767 51.9679 35.8199 51.2508C35.6318 51.1343 35.4376 51.0278 35.2383 50.9317H35.2397Z" fill="url(#paint0_linear_11_281)"/>
<path d="M33.1177 45.9624C33.523 44.8569 33.6803 43.6758 33.5783 42.5028C33.4763 41.3298 33.1176 40.1936 32.5276 39.1746C31.94 38.1545 31.1352 37.276 30.1703 36.6014C29.2054 35.9268 28.104 35.4727 26.9441 35.2711C27.0712 35.0862 27.1855 34.897 27.2886 34.705C27.9318 33.5056 28.8838 32.4998 30.0461 31.7917C31.2084 31.0837 32.5388 30.6991 33.8997 30.6777C35.2605 30.6563 36.6024 30.999 37.7863 31.6703C38.9703 32.3415 39.9534 33.3169 40.6339 34.4956C41.3144 35.6743 41.6676 37.0134 41.6569 38.3743C41.6463 39.7353 41.2721 41.0687 40.5732 42.2366C39.8743 43.4044 38.876 44.3643 37.6816 45.0169C36.4872 45.6694 35.1402 45.991 33.7799 45.9483C33.5586 45.9413 33.3385 45.946 33.1177 45.9624Z" fill="url(#paint1_linear_11_281)"/>
<path d="M28.7948 42.7182C28.5931 41.5585 28.1388 40.4574 27.4642 39.4927C26.7897 38.5281 25.9113 37.7236 24.8913 37.1361C23.8723 36.5461 22.7361 36.1874 21.5631 36.0854C20.3901 35.9835 19.209 36.1407 18.1035 36.546C18.1205 36.3229 18.1247 36.1013 18.1176 35.8824C18.0749 34.5221 18.3965 33.1751 19.0491 31.9807C19.7016 30.7863 20.6615 29.788 21.8294 29.0891C22.9972 28.3902 24.3306 28.016 25.6916 28.0054C27.0526 27.9947 28.3917 28.3479 29.5703 29.0284C30.749 29.7089 31.7244 30.692 32.3957 31.876C33.0669 33.0599 33.4096 34.4018 33.3882 35.7626C33.3669 37.1234 32.9823 38.4539 32.2742 39.6162C31.5662 40.7785 30.5604 41.7305 29.3609 42.3737C29.1689 42.4782 28.9798 42.5926 28.7948 42.7182Z" fill="url(#paint2_linear_11_281)"/>
<path d="M23.4288 42.0715C22.6743 41.1677 21.7303 40.4408 20.6637 39.9424C19.5971 39.4439 18.4339 39.1862 17.2565 39.1873C16.0791 39.1863 14.9158 39.4443 13.8492 39.943C12.7826 40.4417 11.8386 41.1688 11.0843 42.0729C10.9882 41.8736 10.8817 41.6794 10.7652 41.4913C10.0481 40.3345 9.65305 39.0072 9.62101 37.6465C9.58898 36.2859 9.92111 34.9414 10.583 33.7522C11.245 32.563 12.2126 31.5723 13.3859 30.8825C14.5592 30.1928 15.8955 29.8291 17.2565 29.8291C18.6176 29.8291 19.9539 30.1928 21.1272 30.8825C22.3004 31.5723 23.2681 32.563 23.9301 33.7522C24.592 34.9414 24.9241 36.2859 24.8921 37.6465C24.86 39.0072 24.465 40.3345 23.7478 41.4913C23.6313 41.6794 23.5248 41.8735 23.4288 42.0729V42.0715Z" fill="url(#paint3_linear_11_281)"/>
<path d="M18.458 44.1934C17.3526 43.7879 16.1716 43.6305 14.9986 43.7322C13.8256 43.8339 12.6893 44.1924 11.6702 44.7821C10.6501 45.3698 9.77158 46.1745 9.09701 47.1394C8.42244 48.1043 7.96829 49.2057 7.76672 50.3657C7.58419 50.241 7.39523 50.126 7.2006 50.0212C6.00116 49.378 4.99537 48.426 4.28732 47.2637C3.57926 46.1013 3.19466 44.7709 3.1733 43.4101C3.15195 42.0492 3.49462 40.7074 4.16586 39.5234C4.8371 38.3394 5.81253 37.3563 6.9912 36.6758C8.16987 35.9953 9.50897 35.6421 10.8699 35.6528C12.2309 35.6635 13.5643 36.0377 14.7322 36.7366C15.9 37.4355 16.8599 38.4338 17.5125 39.6282C18.165 40.8225 18.4866 42.1696 18.4439 43.5299C18.4368 43.7473 18.4411 43.969 18.458 44.1934Z" fill="url(#paint4_linear_11_281)"/>
<path d="M15.2138 48.5162C14.0539 48.7177 12.9525 49.1719 11.9876 49.8465C11.0227 50.521 10.2179 51.3995 9.63028 52.4197C9.04074 53.4386 8.68242 54.5746 8.58068 55.7474C8.47895 56.9201 8.63629 58.1009 9.04158 59.2061C8.8208 59.1897 8.59932 59.185 8.37805 59.1919C7.0177 59.2347 5.67066 58.9131 4.4763 58.2605C3.28193 57.6079 2.28364 56.6481 1.58472 55.4802C0.885806 54.3124 0.511648 52.979 0.500968 51.618C0.490287 50.257 0.843472 48.9179 1.52398 47.7392C2.20448 46.5606 3.18758 45.5852 4.37156 44.9139C5.55553 44.2427 6.89736 43.9 8.25821 43.9214C9.61905 43.9427 10.9495 44.3273 12.1118 45.0354C13.2741 45.7434 14.2262 46.7492 14.8693 47.9487C14.9724 48.1407 15.0868 48.3298 15.2138 48.5162Z" fill="url(#paint5_linear_11_281)"/>
<path d="M14.5644 53.8809C13.6605 54.6354 12.9337 55.5794 12.4352 56.646C11.9368 57.7127 11.679 58.8758 11.6801 60.0532C11.6801 62.5322 12.8011 64.7501 14.5644 66.2254C14.3625 66.3242 14.1691 66.4301 13.9827 66.5445C12.826 67.2616 11.4986 67.6567 10.138 67.6887C8.77734 67.7207 7.43286 67.3886 6.24365 66.7267C5.05444 66.0648 4.06371 65.0971 3.37398 63.9238C2.68424 62.7505 2.32056 61.4142 2.32056 60.0532C2.32056 58.6922 2.68424 57.3559 3.37398 56.1826C4.06371 55.0093 5.05444 54.0416 6.24365 53.3797C7.43286 52.7177 8.77734 52.3856 10.138 52.4176C11.4986 52.4497 12.826 52.8447 13.9827 53.5619C14.1677 53.6776 14.3625 53.7835 14.5644 53.8809Z" fill="url(#paint6_linear_11_281)"/>
<path d="M16.6847 58.8533C16.2793 59.9584 16.1219 61.1392 16.2237 62.312C16.3254 63.4847 16.6838 64.6208 17.2734 65.6396C17.861 66.6598 18.6658 67.5383 19.6307 68.2129C20.5956 68.8874 21.697 69.3416 22.8569 69.5432C22.7313 69.7295 22.6169 69.9187 22.5139 70.1107C21.8707 71.3101 20.9187 72.3159 19.7563 73.024C18.594 73.732 17.2636 74.1166 15.9027 74.138C14.5419 74.1593 13.2001 73.8167 12.0161 73.1454C10.8321 72.4742 9.84901 71.4988 9.16851 70.3201C8.488 69.1414 8.13482 67.8023 8.1455 66.4413C8.15618 65.0804 8.53034 63.747 9.22926 62.5791C9.92817 61.4113 10.9265 60.4514 12.1208 59.7988C13.3152 59.1463 14.6622 58.8247 16.0226 58.8674C16.24 58.8744 16.4602 58.8688 16.6861 58.8533H16.6847Z" fill="url(#paint7_linear_11_281)"/>
<path d="M21.0091 62.0974C21.2105 63.2572 21.6644 64.3586 22.3388 65.3234C23.0131 66.2883 23.8913 67.0932 24.9112 67.6809C25.9303 68.2707 27.0666 68.6291 28.2396 68.7309C29.4126 68.8326 30.5936 68.6751 31.699 68.2696C31.6826 68.4904 31.6779 68.7119 31.6849 68.9332C31.7276 70.2935 31.406 71.6406 30.7534 72.8349C30.1008 74.0293 29.141 75.0276 27.9731 75.7265C26.8053 76.4254 25.4719 76.7996 24.1109 76.8103C22.7499 76.8209 21.4108 76.4678 20.2322 75.7872C19.0535 75.1067 18.0781 74.1236 17.4068 72.9397C16.7356 71.7557 16.3929 70.4139 16.4143 69.053C16.4356 67.6922 16.8202 66.3617 17.5283 65.1994C18.2363 64.0371 19.2421 63.0851 20.4416 62.4419C20.6336 62.3388 20.8242 62.2231 21.0091 62.0974Z" fill="url(#paint8_linear_11_281)"/>
<path d="M26.3739 62.7468C27.1285 63.6504 28.0725 64.377 29.1391 64.8752C30.2058 65.3734 31.3689 65.6309 32.5461 65.6297C33.7233 65.6309 34.8864 65.3734 35.9531 64.8752C37.0197 64.377 37.9637 63.6504 38.7183 62.7468C38.8172 62.9487 38.923 63.1421 39.0374 63.3285C39.7545 64.4852 40.1496 65.8126 40.1816 67.1732C40.2137 68.5339 39.8815 69.8783 39.2196 71.0675C38.5577 72.2568 37.59 73.2475 36.4167 73.9372C35.2434 74.627 33.9071 74.9906 32.5461 74.9906C31.1851 74.9906 29.8488 74.627 28.6755 73.9372C27.5022 73.2475 26.5345 72.2568 25.8726 71.0675C25.2107 69.8783 24.8785 68.5339 24.9106 67.1732C24.9426 65.8126 25.3376 64.4852 26.0548 63.3285C26.1706 63.1421 26.2764 62.9473 26.3739 62.7468Z" fill="url(#paint9_linear_11_281)"/>
<path d="M31.3445 60.6251C32.4498 61.0307 33.6309 61.1882 34.8039 61.0865C35.9769 60.9848 37.1132 60.6263 38.1322 60.0364C39.1524 59.4488 40.0309 58.644 40.7055 57.6791C41.3801 56.7142 41.8342 55.6128 42.0358 54.4529C42.2207 54.5799 42.4099 54.6943 42.6033 54.7974C43.8027 55.4405 44.8085 56.3926 45.5166 57.5549C46.2246 58.7172 46.6093 60.0476 46.6306 61.4085C46.652 62.7693 46.3093 64.1112 45.638 65.2951C44.9668 66.4791 43.9914 67.4622 42.8127 68.1427C41.634 68.8232 40.2949 69.1764 38.934 69.1657C37.573 69.155 36.2396 68.7809 35.0717 68.082C33.9039 67.383 32.944 66.3848 32.2915 65.1904C31.6389 63.996 31.3173 62.649 31.36 61.2886C31.367 61.0674 31.3609 60.8459 31.3445 60.6251Z" fill="url(#paint10_linear_11_281)"/>
<path d="M40.1781 52.3916L40.1739 52.3986C39.5862 53.4188 38.7815 54.2973 37.8166 54.9719C36.8517 55.6464 35.7503 56.1006 34.5903 56.3022C34.716 56.4885 34.8303 56.6777 34.9348 56.8697C35.4589 57.8439 36.1883 58.6926 37.0727 59.3572C37.957 60.0218 38.9752 60.4863 40.0567 60.7187C41.1382 60.951 42.2574 60.9457 43.3366 60.703C44.4159 60.4603 45.4296 59.986 46.3075 59.313C47.1855 58.6401 47.9068 57.7844 48.4215 56.8052C48.9362 55.826 49.2321 54.7467 49.2887 53.642C49.3452 52.5372 49.1611 51.4333 48.7491 50.4067C48.3371 49.3801 47.707 48.4552 46.9023 47.696C46.3436 49.0369 45.4144 50.1907 44.2235 51.0223C43.0326 51.8539 41.6293 52.3289 40.1781 52.3916Z" fill="url(#paint11_linear_11_281)"/>
<path d="M67.216 37.9662V60.7789H62.1619V37.9662H67.216ZM62.9637 60.7789L63.0569 56.3092H76.1581V60.7789H62.9637ZM76.9501 53.041C76.9501 51.4175 77.2889 50 77.9666 48.7873C78.6243 47.5744 79.6198 46.5784 80.8325 45.92C82.0663 45.2424 83.5049 44.9036 85.1496 44.9036C86.7943 44.9036 88.2216 45.2424 89.4343 45.92C90.6473 46.5778 91.6433 47.5733 92.3016 48.7859C92.9793 50 93.3181 51.4175 93.3181 53.041C93.3181 54.6645 92.9793 56.0833 92.3016 57.2961C91.6365 58.4952 90.642 59.4788 89.4357 60.1309C88.2216 60.8085 86.7943 61.1488 85.1496 61.1488C83.5049 61.1488 82.0663 60.8099 80.8339 60.1323C79.6272 59.4795 78.6327 58.4948 77.968 57.2946C77.2889 56.0833 76.9501 54.6645 76.9501 53.041ZM81.7275 53.0099C81.7275 53.7906 81.8715 54.4796 82.1595 55.0753C82.4475 55.6513 82.847 56.1031 83.3609 56.432C83.9033 56.7478 84.5222 56.908 85.1496 56.8951C85.8273 56.8951 86.423 56.7398 86.9369 56.432C87.4508 56.1031 87.8419 55.6513 88.1087 55.0768C88.3967 54.4796 88.5407 53.792 88.5407 53.0099C88.5407 52.2292 88.3967 51.5516 88.1087 50.9756C87.8628 50.4243 87.4539 49.9616 86.9369 49.6499C86.4019 49.3148 85.7808 49.1431 85.1496 49.1558C84.518 49.143 83.8964 49.3147 83.3609 49.6499C82.8404 49.966 82.423 50.4266 82.1595 50.9756C81.8715 51.5516 81.7275 52.2292 81.7275 53.0099ZM94.391 52.7939C94.391 51.2128 94.7101 49.825 95.3468 48.632C95.945 47.4815 96.8524 46.5207 97.967 45.8579C99.0767 45.1803 100.352 44.8415 101.79 44.8415C103.003 44.8415 104.072 45.0871 104.995 45.5812C105.941 46.0739 106.579 46.7219 106.908 47.5224L106.445 47.8316L106.815 45.3652H111.099V59.7935C111.099 61.6005 110.751 63.1633 110.052 64.4777C109.385 65.7808 108.344 66.8546 107.062 67.561C105.787 68.281 104.266 68.6396 102.499 68.6396C101.019 68.6396 99.6837 68.3431 98.4908 67.7459C97.338 67.1859 96.3504 66.3361 95.6249 65.2796C94.9049 64.2109 94.4729 62.9784 94.3289 61.5808H99.1388C99.1797 62.4645 99.5285 63.1422 100.186 63.6151C100.864 64.088 101.728 64.3238 102.777 64.3238C103.949 64.3238 104.852 63.9949 105.489 63.337C106.126 62.7017 106.445 61.8476 106.445 60.7789V57.5106L106.877 57.9116C106.548 58.7135 105.911 59.36 104.965 59.8542C104.019 60.3483 102.931 60.5939 101.697 60.5939C100.28 60.5939 99.0146 60.265 97.9049 59.6071C96.81 58.9434 95.9152 57.9955 95.3157 56.864C94.6988 55.6923 94.391 54.337 94.391 52.7939ZM99.1995 52.6711C99.1995 53.4109 99.3548 54.0688 99.6626 54.6433C99.9703 55.2193 100.383 55.6711 100.895 56C101.407 56.3083 101.994 56.4686 102.592 56.4631C103.332 56.4631 103.978 56.3078 104.533 56C105.109 55.6711 105.55 55.2193 105.86 54.6448C106.188 54.0688 106.353 53.4109 106.353 52.6711C106.353 51.9102 106.188 51.2636 105.859 50.7285C105.536 50.1794 105.067 49.7311 104.504 49.4339C103.947 49.1262 103.301 48.9723 102.561 48.9723C101.944 48.9723 101.379 49.1262 100.865 49.4339C100.346 49.7476 99.9199 50.1946 99.6315 50.7285C99.3435 51.2833 99.1995 51.9313 99.1995 52.6711ZM112.792 53.041C112.792 51.4175 113.131 50 113.808 48.7873C114.467 47.5742 115.463 46.5781 116.676 45.92C117.91 45.2424 119.348 44.9036 120.992 44.9036C122.636 44.9036 124.065 45.2424 125.278 45.92C126.49 46.578 127.486 47.5735 128.144 48.7859C128.821 50 129.16 51.4175 129.16 53.041C129.16 54.6645 128.821 56.0833 128.144 57.2961C127.478 58.4952 126.484 59.4788 125.278 60.1309C124.064 60.8085 122.636 61.1488 120.992 61.1488C119.348 61.1488 117.91 60.8099 116.676 60.1323C115.469 59.4795 114.475 58.4948 113.81 57.2946C113.131 56.0833 112.792 54.6645 112.792 53.041ZM117.569 53.0099C117.569 53.7906 117.713 54.4796 118.001 55.0753C118.289 55.6513 118.69 56.1031 119.204 56.432C119.718 56.7398 120.314 56.8951 120.992 56.8951C121.669 56.8951 122.266 56.7398 122.78 56.432C123.294 56.1031 123.684 55.6513 123.952 55.0768C124.239 54.4796 124.383 53.792 124.383 53.0099C124.383 52.2292 124.239 51.5516 123.952 50.9756C123.706 50.4243 123.297 49.9616 122.78 49.6499C122.245 49.3146 121.623 49.1428 120.992 49.1558C120.314 49.1558 119.718 49.321 119.204 49.6499C118.683 49.9658 118.265 50.4264 118.001 50.9756C117.713 51.5516 117.569 52.2292 117.569 53.0099ZM131.156 60.7789V45.3652H135.935V60.7789H131.156ZM133.562 42.961C132.801 42.961 132.153 42.704 131.619 42.1902C131.368 41.9339 131.171 41.63 131.038 41.2965C130.906 40.9629 130.841 40.6064 130.848 40.2476C130.848 39.4866 131.105 38.8499 131.619 38.336C131.876 38.0849 132.179 37.8874 132.513 37.755C132.846 37.6226 133.203 37.5581 133.562 37.5652C134.302 37.5652 134.928 37.8222 135.442 38.336C135.976 38.8499 136.243 39.4866 136.243 40.2476C136.243 41.0071 135.976 41.6551 135.442 42.1902C135.198 42.4403 134.905 42.6378 134.582 42.7703C134.258 42.9029 133.911 42.9678 133.562 42.961ZM139.025 68.1779V45.3624H143.372L143.618 47.2443C144.05 46.5243 144.739 45.9497 145.683 45.5177C146.642 45.0832 147.683 44.8621 148.736 44.8697C150.174 44.8697 151.428 45.1888 152.496 45.8255C153.565 46.4636 154.408 47.3784 155.025 48.5699C155.64 49.7417 155.969 51.1591 156.012 52.8236C156.053 54.4471 155.784 55.897 155.21 57.1718C154.634 58.424 153.802 59.4109 152.712 60.1295C151.623 60.8495 150.308 61.2095 148.767 61.2095C147.743 61.218 146.728 61.0296 145.776 60.6546C144.852 60.2848 144.163 59.8118 143.711 59.2358V68.1765H139.024L139.025 68.1779ZM143.803 53.072C143.803 53.8316 143.957 54.5106 144.266 55.1064C144.595 55.6824 145.037 56.1342 145.592 56.4617C146.166 56.7723 146.824 56.9248 147.564 56.9248C148.325 56.9248 148.973 56.761 149.506 56.432C150.061 56.1031 150.483 55.6513 150.77 55.0768C151.079 54.5008 151.233 53.833 151.233 53.072C151.233 52.3111 151.079 51.6433 150.77 51.0673C150.491 50.5013 150.052 50.0299 149.506 49.712C148.973 49.3831 148.325 49.2179 147.564 49.2179C146.824 49.2179 146.166 49.3831 145.592 49.712C145.035 50.0221 144.576 50.4812 144.266 51.0377C143.957 51.6123 143.803 52.2928 143.803 53.072ZM156.825 55.9083H161.111C161.111 56.4419 161.285 56.864 161.635 57.1718C162.005 57.4796 162.538 57.6349 163.237 57.6349C163.648 57.6349 163.988 57.5826 164.255 57.4796C164.508 57.4013 164.732 57.2518 164.902 57.049C165.061 56.859 165.148 56.6192 165.149 56.3713C165.149 56.1031 165.057 55.8772 164.872 55.6923C164.707 55.5073 164.419 55.3633 164.008 55.2603L161.296 54.5516C159.774 54.1408 158.696 53.5351 158.059 52.7332C157.43 51.9577 157.092 50.987 157.103 49.9888C157.103 48.961 157.36 48.0688 157.874 47.3064C158.413 46.5217 159.16 45.9028 160.031 45.5191C160.936 45.0871 161.952 44.8711 163.083 44.8711C164.789 44.8711 166.186 45.344 167.276 46.2899C168.386 47.2146 168.972 48.4782 169.034 50.0819H164.748C164.769 49.5469 164.615 49.1262 164.286 48.817C163.957 48.488 163.525 48.3243 162.992 48.3243C162.519 48.3243 162.128 48.4471 161.82 48.6942C161.532 48.92 161.388 49.2391 161.388 49.6499C161.388 50.041 161.532 50.3276 161.82 50.5125C162.108 50.6777 162.497 50.8217 162.992 50.9445L165.735 51.6222C167.009 51.9313 167.975 52.4551 168.633 53.1949C169.291 53.9346 169.618 54.8805 169.618 56.0325C169.618 57.6137 169.034 58.8673 167.862 59.792C166.69 60.7168 165.17 61.1798 163.299 61.1798C161.368 61.1798 159.815 60.697 158.645 59.7313C157.493 58.7431 156.887 57.4697 156.825 55.9083ZM177.194 61.1798C175.385 61.1798 173.988 60.6151 173.001 59.4843C172.016 58.3549 171.521 56.8739 171.521 55.0443V45.3652H176.269V53.3191C176.269 54.7577 176.526 55.7233 177.04 56.216C177.554 56.7102 178.231 56.9558 179.074 56.9558C180.164 56.9558 180.914 56.648 181.325 56.0311C181.736 55.4156 181.942 54.5304 181.942 53.3798V45.3652H186.689V60.7789H182.22L181.911 59.0523C181.438 59.689 180.77 60.2029 179.907 60.5939C179.055 60.982 178.13 61.1818 177.194 61.1798ZM194.526 60.7789H189.747V45.3652H194.187L194.526 48.0165L194.002 47.4617C194.424 46.6695 195.067 46.0164 195.852 45.5812C196.673 45.0939 197.61 44.8382 198.565 44.8415C200.086 44.8415 201.277 45.1803 202.141 45.8579C203.025 46.5356 203.662 47.4306 204.051 48.5403H203.311C203.544 47.451 204.184 46.4916 205.1 45.8579C206.046 45.1803 207.176 44.8415 208.491 44.8415C210.485 44.8415 211.954 45.3751 212.9 46.4438C213.845 47.5125 214.318 48.9313 214.318 50.6989V60.7789H209.694V51.8706C209.694 50.9036 209.457 50.1836 208.984 49.7106C208.532 49.2391 207.927 49.0019 207.166 49.0019C206.714 49.0019 206.282 49.105 205.871 49.3111C205.46 49.4946 205.12 49.8349 204.853 50.3276C204.586 50.8005 204.452 51.4796 204.452 52.3633V60.7789H199.767V51.8706C199.767 50.9036 199.541 50.1949 199.089 49.7417C198.636 49.2702 198.03 49.033 197.269 49.033C196.817 49.033 196.376 49.136 195.944 49.3422C195.533 49.5257 195.194 49.8645 194.927 50.3586C194.66 50.8316 194.526 51.4993 194.526 52.3633V60.7789Z" fill="#1B3D5B"/>
</g>
</g>
</g>
<defs>
<linearGradient id="paint0_linear_11_281" x1="36.1955" y1="37.1218" x2="36.1955" y2="52.3985" gradientUnits="userSpaceOnUse">
<stop stop-color="#25136D"/>
<stop offset="1" stop-color="#3D9BA2"/>
</linearGradient>
<linearGradient id="paint1_linear_11_281" x1="27.0401" y1="33.5233" x2="34.6777" y2="46.7544" gradientUnits="userSpaceOnUse">
<stop stop-color="#25136D"/>
<stop offset="1" stop-color="#3D9BA2"/>
</linearGradient>
<linearGradient id="paint2_linear_11_281" x1="17.3129" y1="34.986" x2="30.5426" y2="42.6236" gradientUnits="userSpaceOnUse">
<stop stop-color="#25136D"/>
<stop offset="1" stop-color="#3D9BA2"/>
</linearGradient>
<linearGradient id="paint3_linear_11_281" x1="9.6189" y1="41.1143" x2="24.8942" y2="41.1143" gradientUnits="userSpaceOnUse">
<stop stop-color="#25136D"/>
<stop offset="1" stop-color="#3D9BA2"/>
</linearGradient>
<linearGradient id="paint4_linear_11_281" x1="6.02037" y1="50.2697" x2="19.25" y2="42.632" gradientUnits="userSpaceOnUse">
<stop stop-color="#25136D"/>
<stop offset="1" stop-color="#3D9BA2"/>
</linearGradient>
<linearGradient id="paint5_linear_11_281" x1="7.48016" y1="59.9981" x2="15.1178" y2="46.7684" gradientUnits="userSpaceOnUse">
<stop stop-color="#25136D"/>
<stop offset="1" stop-color="#3D9BA2"/>
</linearGradient>
<linearGradient id="paint6_linear_11_281" x1="13.6086" y1="67.6922" x2="13.6086" y2="52.4155" gradientUnits="userSpaceOnUse">
<stop stop-color="#25136D"/>
<stop offset="1" stop-color="#3D9BA2"/>
</linearGradient>
<linearGradient id="paint7_linear_11_281" x1="22.7623" y1="71.2909" x2="15.1233" y2="58.0613" gradientUnits="userSpaceOnUse">
<stop stop-color="#25136D"/>
<stop offset="1" stop-color="#3D9BA2"/>
</linearGradient>
<linearGradient id="paint8_linear_11_281" x1="32.491" y1="69.8311" x2="19.2599" y2="62.192" gradientUnits="userSpaceOnUse">
<stop stop-color="#25136D"/>
<stop offset="1" stop-color="#3D9BA2"/>
</linearGradient>
<linearGradient id="paint9_linear_11_281" x1="40.1852" y1="63.7026" x2="24.9084" y2="63.7026" gradientUnits="userSpaceOnUse">
<stop stop-color="#25136D"/>
<stop offset="1" stop-color="#3D9BA2"/>
</linearGradient>
<linearGradient id="paint10_linear_11_281" x1="43.7835" y1="54.5489" x2="30.5539" y2="62.1865" gradientUnits="userSpaceOnUse">
<stop stop-color="#25136D"/>
<stop offset="1" stop-color="#3D9BA2"/>
</linearGradient>
<linearGradient id="paint11_linear_11_281" x1="42.324" y1="44.8203" x2="34.6849" y2="58.0499" gradientUnits="userSpaceOnUse">
<stop stop-color="#25136D"/>
<stop offset="1" stop-color="#3D9BA2"/>
</linearGradient>
<clipPath id="clip0_11_281">
<rect width="216" height="100" fill="white" transform="translate(0.496094 0.896484)"/>
</clipPath>
<clipPath id="clip1_11_281">
<rect width="216" height="100" fill="white" transform="translate(0.496094 0.896484)"/>
</clipPath>
<clipPath id="clip2_11_281">
<rect width="216" height="53.6471" fill="white" transform="translate(0.496094 24.073)"/>
</clipPath>
</defs>
</svg>
