<svg width="217" height="101" viewBox="0 0 217 101" fill="none" xmlns="http://www.w3.org/2000/svg">
<g clip-path="url(#clip0_11_275)">
<g clip-path="url(#clip1_11_275)">
<g clip-path="url(#clip2_11_275)">
<path d="M63.8535 61.7633H79.2204V57.1347H69.3152V39.7004H63.8535V61.7633ZM88.3232 58.6776C86.1337 58.6776 84.9919 56.7644 84.9919 53.8947C84.9919 51.025 86.1337 49.081 88.3245 49.081C90.5154 49.081 91.6879 51.025 91.6879 53.8947C91.6879 56.7644 90.5141 58.6776 88.3232 58.6776ZM88.3554 62.257C93.4468 62.257 96.7794 58.6467 96.7794 53.8947C96.7794 49.1427 93.4468 45.5324 88.3554 45.5324C83.2948 45.5324 79.9005 49.1427 79.9005 53.8947C79.9005 58.6467 83.2948 62.257 88.3554 62.257ZM105.592 67.225C107.937 67.225 110.004 66.7004 111.393 65.4662C112.658 64.3244 113.491 62.5964 113.491 60.2204V45.9644H108.677V47.6616H108.616C107.69 46.3347 106.271 45.5016 104.172 45.5016C100.253 45.5016 97.5379 48.7724 97.5379 53.401C97.5379 58.2456 100.84 60.8993 104.388 60.8993C106.301 60.8993 107.505 60.1279 108.431 59.0787H108.554V60.6524C108.554 62.5656 107.659 63.6764 105.53 63.6764C103.864 63.6764 103.031 62.9667 102.753 62.1336H97.8774C98.3711 65.4353 101.241 67.225 105.592 67.225ZM105.561 57.1656C103.679 57.1656 102.444 55.6227 102.444 53.2467C102.444 50.8399 103.679 49.297 105.561 49.297C107.659 49.297 108.77 51.0867 108.77 53.2159C108.77 55.4376 107.752 57.1656 105.561 57.1656ZM123.39 58.6776C121.198 58.6776 120.056 56.7644 120.056 53.8947C120.056 51.025 121.198 49.081 123.39 49.081C125.579 49.081 126.752 51.025 126.752 53.8947C126.752 56.7644 125.579 58.6776 123.39 58.6776ZM123.419 62.257C128.511 62.257 131.843 58.6467 131.843 53.8947C131.843 49.1427 128.511 45.5324 123.419 45.5324C118.359 45.5324 114.965 49.1427 114.965 53.8947C114.965 58.6467 118.359 62.257 123.419 62.257ZM133.313 61.7633H138.343V45.9644H133.313V61.7633ZM133.313 43.7736H138.343V39.7004H133.313V43.7736ZM140.525 66.9782H145.554V60.1279H145.616C146.603 61.4547 148.054 62.257 150.09 62.257C154.225 62.257 156.971 58.9862 156.971 53.8639C156.971 49.1119 154.41 45.5016 150.214 45.5016C148.054 45.5016 146.511 46.4582 145.431 47.8776H145.338V45.9644H140.525V66.9782ZM148.794 58.369C146.634 58.369 145.4 56.6102 145.4 54.049C145.4 51.4879 146.511 49.5439 148.702 49.5439C150.862 49.5439 151.88 51.3336 151.88 54.049C151.88 56.7336 150.707 58.369 148.794 58.369ZM165.16 62.257C169.295 62.257 172.35 60.4673 172.35 57.0113C172.35 52.969 169.079 52.2593 166.302 51.7964C164.296 51.4262 162.506 51.2719 162.506 50.161C162.506 49.1736 163.463 48.7107 164.697 48.7107C166.086 48.7107 167.042 49.1427 167.228 50.5622H171.856C171.609 47.4456 169.202 45.5016 164.728 45.5016C160.994 45.5016 157.909 47.2296 157.909 50.5622C157.909 54.265 160.84 55.0056 163.586 55.4684C165.685 55.8387 167.598 55.993 167.598 57.4124C167.598 58.4307 166.641 58.9862 165.129 58.9862C163.463 58.9862 162.414 58.2147 162.229 56.641H157.477C157.631 60.1279 160.532 62.257 165.16 62.257ZM179.182 62.2262C181.373 62.2262 182.762 61.3622 183.903 59.8193H183.996V61.7633H188.81V45.9644H183.78V54.7896C183.78 56.6719 182.731 57.9679 181.003 57.9679C179.398 57.9679 178.627 57.0113 178.627 55.2833V45.9644H173.628V56.3324C173.628 59.8502 175.541 62.2262 179.182 62.2262ZM190.998 61.7633H196.028V52.9073C196.028 51.025 196.953 49.6982 198.527 49.6982C200.039 49.6982 200.749 50.6856 200.749 52.3827V61.7633H205.778V52.9073C205.778 51.025 206.673 49.6982 208.278 49.6982C209.79 49.6982 210.5 50.6856 210.5 52.3827V61.7633H215.529V51.4879C215.529 47.9393 213.74 45.5016 210.16 45.5016C208.124 45.5016 206.426 46.3656 205.192 48.2787H205.13C204.328 46.5816 202.754 45.5016 200.687 45.5016C198.404 45.5016 196.892 46.5816 195.904 48.217H195.812V45.9644H190.998V61.7633Z" fill="#3C2B1F"/>
<path d="M33.166 27.0812L28.1093 25.7261L23.8484 41.6304L20.0003 27.2715L14.9436 28.6279L19.1003 44.1414L8.74642 33.7875L5.04485 37.4904L16.4016 48.8458L2.25871 45.0568L0.903564 50.1122L16.3566 54.2522C16.0004 52.7174 15.9952 51.122 16.3414 49.5848C16.6876 48.0477 17.3762 46.6086 18.356 45.3746C19.3357 44.1406 20.5813 43.1436 21.9999 42.458C23.4185 41.7723 24.9736 41.4157 26.5492 41.4146C28.1248 41.4135 29.6803 41.768 31.0999 42.4517C32.5194 43.1354 33.7664 44.1306 34.7479 45.3632C35.7293 46.5958 36.4199 48.034 36.7682 49.5707C37.1165 51.1073 37.1136 52.7027 36.7596 54.2381L50.8034 58.0001L52.1573 52.9434L36.6438 48.7866L50.7867 44.9964L49.4328 39.9409L33.9194 44.0964L44.272 33.7438L40.5704 30.0409L29.3719 41.2408L33.166 27.0812Z" fill="#F97316"/>
<path d="M36.7455 54.2958C36.318 56.0983 35.419 57.7547 34.1406 59.0954L44.3145 69.2692L48.0173 65.5664L36.7455 54.2958ZM34.0377 59.2021C32.749 60.52 31.135 61.4741 29.359 61.9677L33.0619 75.784L38.1186 74.4288L34.0377 59.2021ZM29.1713 62.0178C28.3169 62.2371 27.4383 62.3477 26.5562 62.347C25.6126 62.3477 24.6733 62.221 23.7636 61.9702L20.0582 75.8007L25.1149 77.1558L29.1713 62.0178ZM23.5849 61.9201C21.834 61.401 20.2494 60.433 18.9885 59.1121L8.79017 69.3117L12.4917 73.0145L23.5849 61.9201ZM18.9036 59.0221C17.6582 57.691 16.7828 56.0572 16.3643 54.283L2.27417 58.0578L3.62931 63.1145L18.9036 59.0221Z" fill="#F97316"/>
</g>
</g>
</g>
<defs>
<clipPath id="clip0_11_275">
<rect width="216" height="100" fill="white" transform="translate(0.496094 0.896484)"/>
</clipPath>
<clipPath id="clip1_11_275">
<rect width="216" height="100" fill="white" transform="translate(0.496094 0.896484)"/>
</clipPath>
<clipPath id="clip2_11_275">
<rect width="216" height="52.7143" fill="white" transform="translate(0.496094 24.5393)"/>
</clipPath>
</defs>
</svg>
