<svg width="217" height="101" viewBox="0 0 217 101" fill="none" xmlns="http://www.w3.org/2000/svg">
<g clip-path="url(#clip0_11_297)">
<g clip-path="url(#clip1_11_297)">
<g clip-path="url(#clip2_11_297)">
<path d="M1.73706 63.8594V37.3352L14.9992 44.7032V56.5648L25.6086 62.5323L36.218 56.5648V44.7032L49.4801 37.3337V63.8594L25.6072 77.1215L1.73706 63.8594Z" fill="#192657"/>
<path fill-rule="evenodd" clip-rule="evenodd" d="M8.36812 41.0184L1.73706 37.3337L25.6086 24.073L49.4801 37.3351L42.8491 41.0198V60.5445L25.6086 70.4904L8.36812 60.5431V41.0184ZM42.1305 41.4179L36.218 44.7031V44.6297L25.6086 38.6608L14.9992 44.6297V44.7031L9.08671 41.4179V60.1351L25.6086 69.6674L42.1305 60.1351V41.4179Z" fill="url(#paint0_linear_11_297)"/>
<path d="M62.1902 61.7628V39.4823H66.3916V57.9425H76.5775V61.7628H62.1902ZM85.6481 62.2089C84.0782 62.2089 82.6664 61.8898 81.4142 61.2531C80.1818 60.6345 79.1543 59.6731 78.4551 58.4847C77.7337 57.2748 77.3723 55.8207 77.3723 54.1237V53.6155C77.3723 51.9171 77.7337 50.463 78.4551 49.2531C79.1546 48.0652 80.182 47.1043 81.4142 46.4861C82.6664 45.848 84.0782 45.5303 85.6481 45.5303C87.218 45.5303 88.6297 45.848 89.8805 46.4847C91.1136 47.1035 92.1416 48.0653 92.841 49.2545C93.5624 50.463 93.9238 51.9171 93.9238 53.6141V54.1237C93.9238 55.8207 93.5624 57.2748 92.841 58.4847C92.1418 59.6731 91.1143 60.6345 89.8819 61.2531C88.6297 61.8898 87.2179 62.2089 85.6467 62.2089H85.6481ZM85.6481 58.6428C86.8791 58.6428 87.897 58.2517 88.7031 57.4654C89.5107 56.6607 89.913 55.5129 89.913 54.0277V53.7101C89.913 52.2249 89.5092 51.0898 88.7031 50.3049C87.9182 49.4974 86.9003 49.095 85.6481 49.095C84.417 49.095 83.3991 49.4974 82.593 50.3049C81.7855 51.0898 81.3831 52.2249 81.3831 53.7101V54.0277C81.3831 55.5129 81.7855 56.6592 82.593 57.4654C83.3977 58.2503 84.417 58.6442 85.6481 58.6442V58.6428ZM95.4288 53.9317V53.4235C95.4288 51.7689 95.7577 50.3571 96.417 49.191C97.0735 48.0023 97.9431 47.1002 99.026 46.4847C100.118 45.8514 101.359 45.5219 102.622 45.5303C104.066 45.5303 105.159 45.7844 105.901 46.2927C106.644 46.8037 107.186 47.3331 107.525 47.8851H108.097V45.975H112.044V64.5637C112.044 65.6465 111.725 66.5049 111.089 67.1416C110.453 67.7995 109.603 68.1298 108.543 68.1298H97.9756V64.6287H107.142C107.735 64.6287 108.033 64.3096 108.033 63.6729V59.5647H107.46C107.248 59.9035 106.952 60.255 106.57 60.615C106.188 60.9538 105.678 61.2418 105.041 61.4762C104.406 61.7077 103.599 61.8249 102.623 61.8249C101.364 61.8341 100.125 61.5159 99.026 60.9016C97.9431 60.2663 97.0735 59.3628 96.4156 58.1967C95.7577 57.0079 95.4288 55.5863 95.4288 53.9317ZM103.768 58.3251C104.999 58.3251 106.027 57.9327 106.856 57.1477C107.683 56.3628 108.098 55.2588 108.098 53.8371V53.5195C108.098 52.0767 107.683 50.9727 106.856 50.2089C106.049 49.424 105.02 49.0315 103.768 49.0315C102.537 49.0315 101.509 49.424 100.681 50.2089C99.8532 50.9727 99.4396 52.0767 99.4396 53.5195V53.8371C99.4396 55.2588 99.8532 56.3628 100.682 57.1477C101.508 57.9327 102.537 58.3251 103.768 58.3251ZM122.57 62.2089C120.999 62.2089 119.588 61.8898 118.336 61.2531C117.103 60.6347 116.075 59.6733 115.376 58.4847C114.656 57.2748 114.294 55.8207 114.294 54.1237V53.6155C114.294 51.9171 114.654 50.463 115.376 49.2531C116.075 48.065 117.103 47.1041 118.336 46.4861C119.588 45.848 120.999 45.5303 122.57 45.5303C124.14 45.5303 125.55 45.848 126.802 46.4847C128.035 47.1035 129.064 48.0653 129.763 49.2545C130.484 50.463 130.846 51.9171 130.846 53.6141V54.1237C130.846 55.8207 130.484 57.2748 129.763 58.4847C129.063 59.6733 128.035 60.6347 126.802 61.2531C125.55 61.8898 124.14 62.2089 122.57 62.2089ZM122.57 58.6428C123.8 58.6428 124.819 58.2517 125.625 57.4654C126.431 56.6607 126.835 55.5129 126.835 54.0277V53.7101C126.835 52.2249 126.431 51.0898 125.625 50.3049C124.84 49.4974 123.822 49.095 122.57 49.095C121.339 49.095 120.321 49.4974 119.513 50.3049C118.709 51.0898 118.305 52.2249 118.305 53.7101V54.0277C118.305 55.5129 118.707 56.6592 119.513 57.4654C120.321 58.2503 121.339 58.6442 122.57 58.6442V58.6428ZM133.114 61.7628V45.975H137.124V61.7628H133.114ZM135.119 44.1298C134.399 44.1298 133.782 43.8955 133.274 43.4296C132.785 42.9637 132.541 42.3468 132.541 41.583C132.541 40.8207 132.785 40.2037 133.274 39.7364C133.782 39.2705 134.398 39.0376 135.119 39.0376C135.862 39.0376 136.477 39.2705 136.966 39.7364C137.454 40.2037 137.698 40.8192 137.698 41.583C137.698 42.3468 137.454 42.9623 136.966 43.4296C136.477 43.8955 135.863 44.1298 135.119 44.1298ZM140.137 68.1284V45.975H144.084V47.8851H144.657C145.017 47.2696 145.579 46.7289 146.344 46.2616C147.108 45.7745 148.201 45.5303 149.622 45.5303C150.896 45.5303 152.073 45.848 153.154 46.4847C154.237 47.1002 155.107 48.0122 155.765 49.2235C156.423 50.432 156.752 51.8959 156.752 53.6141V54.1237C156.752 55.8418 156.423 57.3072 155.765 58.5157C155.107 59.7256 154.237 60.6475 153.154 61.2856C152.073 61.9011 150.896 62.2089 149.622 62.2089C148.666 62.2089 147.86 62.0917 147.202 61.8588C146.566 61.647 146.046 61.3703 145.644 61.0301C145.294 60.7079 144.984 60.3449 144.721 59.9487H144.147V68.1284H140.137ZM148.412 58.7077C149.665 58.7077 150.694 58.3138 151.5 57.5289C152.327 56.7242 152.741 55.5567 152.741 54.0277V53.7101C152.741 52.1825 152.327 51.0263 151.5 50.2414C150.673 49.4338 149.643 49.0315 148.412 49.0315C147.181 49.0315 146.152 49.4338 145.325 50.2414C144.497 51.0263 144.084 52.1825 144.084 53.7101V54.0277C144.084 55.5567 144.497 56.7242 145.325 57.5289C146.152 58.3138 147.181 58.7077 148.412 58.7077ZM165.558 62.2089C163.5 62.2089 161.813 61.7628 160.497 60.872C159.183 59.9797 158.386 58.7077 158.11 57.0517L161.803 56.0974C161.951 56.84 162.195 57.4244 162.534 57.8479C162.896 58.2715 163.33 58.5792 163.84 58.7712C164.369 58.9407 164.943 59.0254 165.558 59.0254C166.491 59.0254 167.182 58.8658 167.628 58.5482C168.073 58.2094 168.296 57.7943 168.296 57.3058C168.303 57.0796 168.247 56.8559 168.135 56.6595C168.022 56.4631 167.858 56.3017 167.659 56.1934C167.235 55.9167 166.556 55.6936 165.622 55.5242L164.731 55.3647C163.698 55.1732 162.686 54.8859 161.707 54.5063C160.795 54.1251 160.062 53.6028 159.51 52.9463C158.96 52.2884 158.683 51.44 158.683 50.3995C158.683 48.8296 159.256 47.631 160.402 46.8037C161.547 45.9538 163.055 45.5303 164.921 45.5303C166.683 45.5303 168.147 45.9228 169.313 46.7077C170.481 47.4927 171.245 48.5218 171.606 49.7952L167.882 50.9416C167.713 50.1341 167.362 49.5623 166.832 49.2221C166.322 48.8832 165.685 48.7138 164.921 48.7138C164.158 48.7138 163.575 48.8508 163.171 49.1261C162.982 49.2354 162.826 49.3937 162.72 49.5843C162.613 49.7749 162.56 49.9907 162.567 50.2089C162.567 50.7171 162.778 51.0997 163.203 51.3552C163.627 51.5882 164.2 51.7689 164.921 51.896L165.812 52.0555C167.001 52.2672 168.073 52.5538 169.028 52.9138C170.004 53.2527 170.768 53.7524 171.32 54.4103C171.893 55.0456 172.179 55.9167 172.179 57.0207C172.179 58.6752 171.574 59.9585 170.364 60.872C169.177 61.7628 167.574 62.2089 165.558 62.2089ZM180.276 62.0169C179.046 62.0169 177.963 61.7416 177.03 61.1896C176.117 60.6152 175.379 59.8005 174.897 58.8348C174.389 57.8367 174.133 56.6917 174.133 55.3971V45.975H178.144V55.0781C178.144 56.2668 178.431 57.1576 179.004 57.752C179.597 58.3463 180.435 58.6428 181.518 58.6428C182.748 58.6428 183.704 58.2404 184.383 57.4343C185.062 56.607 185.401 55.4607 185.401 53.9967V45.975H189.411V61.7628H185.464V59.6945H184.892C184.637 60.224 184.16 60.7449 183.459 61.2531C182.759 61.7628 181.697 62.0169 180.276 62.0169ZM192.442 61.7628V45.975H196.388V47.6945H196.961C197.237 47.1637 197.694 46.7077 198.329 46.3251C198.966 45.9228 199.805 45.7209 200.845 45.7209C201.969 45.7209 202.871 45.944 203.55 46.3887C204.229 46.8136 204.749 47.3769 205.11 48.0757H205.682C206.043 47.3981 206.553 46.8348 207.211 46.3901C207.869 45.9439 208.802 45.7209 210.012 45.7209C210.987 45.7209 211.868 45.9327 212.653 46.3576C213.459 46.76 214.096 47.3868 214.563 48.2352C215.05 49.0625 215.295 50.1129 215.295 51.3863V61.7628H211.284V51.6729C211.284 50.8032 211.062 50.1552 210.616 49.7317C210.17 49.2856 209.545 49.0625 208.738 49.0625C207.826 49.0625 207.115 49.359 206.605 49.9548C206.118 50.5265 205.874 51.3552 205.874 52.4367V61.7628H201.863V51.6729C201.863 50.8032 201.64 50.1552 201.195 49.7317C200.749 49.2856 200.124 49.0625 199.316 49.0625C198.404 49.0625 197.694 49.359 197.185 49.9548C196.696 50.5265 196.452 51.3552 196.452 52.4367V61.7628H192.442Z" fill="#192657"/>
</g>
</g>
</g>
<defs>
<linearGradient id="paint0_linear_11_297" x1="8.36812" y1="34.3874" x2="44.1747" y2="34.3874" gradientUnits="userSpaceOnUse">
<stop stop-color="#64C2DB"/>
<stop offset="0.307" stop-color="#7476ED"/>
<stop offset="0.604" stop-color="#C994DF"/>
<stop offset="1" stop-color="#E56F8C"/>
</linearGradient>
<clipPath id="clip0_11_297">
<rect width="216" height="100" fill="white" transform="translate(0.496094 0.896484)"/>
</clipPath>
<clipPath id="clip1_11_297">
<rect width="216" height="100" fill="white" transform="translate(0.496094 0.896484)"/>
</clipPath>
<clipPath id="clip2_11_297">
<rect width="216" height="53.6471" fill="white" transform="translate(0.496094 24.073)"/>
</clipPath>
</defs>
</svg>
