<svg width="217" height="101" viewBox="0 0 217 101" fill="none" xmlns="http://www.w3.org/2000/svg">
<g clip-path="url(#clip0_11_270)">
<g clip-path="url(#clip1_11_270)">
<g clip-path="url(#clip2_11_270)">
<path d="M65.6494 62.1068H80.8355V57.5326H71.0469V40.3035H65.6494V62.1068ZM89.8312 59.0574C87.6674 59.0574 86.5392 57.1667 86.5392 54.3308C86.5392 51.4948 87.6674 49.5737 89.8325 49.5737C91.9976 49.5737 93.1564 51.4948 93.1564 54.3308C93.1564 57.1667 91.9963 59.0574 89.8312 59.0574ZM89.863 62.5947C94.8945 62.5947 98.1879 59.0269 98.1879 54.3308C98.1879 49.6347 94.8945 46.0669 89.863 46.0669C84.862 46.0669 81.5076 49.6347 81.5076 54.3308C81.5076 59.0269 84.862 62.5947 89.863 62.5947ZM106.897 67.5042C109.214 67.5042 111.257 66.9858 112.629 65.7661C113.88 64.6378 114.703 62.9301 114.703 60.5821V46.4938H109.946V48.1709H109.885C108.97 46.8597 107.567 46.0364 105.494 46.0364C101.621 46.0364 98.9376 49.2687 98.9376 53.8429C98.9376 58.6304 102.2 61.2529 105.707 61.2529C107.598 61.2529 108.787 60.4906 109.702 59.4538H109.824V61.009C109.824 62.8996 108.94 63.9974 106.836 63.9974C105.189 63.9974 104.366 63.296 104.091 62.4727H99.273C99.7609 65.7356 102.597 67.5042 106.897 67.5042ZM106.866 57.5631C105.006 57.5631 103.786 56.0384 103.786 53.6904C103.786 51.3118 105.006 49.7871 106.866 49.7871C108.94 49.7871 110.037 51.5558 110.037 53.6599C110.037 55.8555 109.031 57.5631 106.866 57.5631ZM124.484 59.0574C122.319 59.0574 121.191 57.1667 121.191 54.3308C121.191 51.4948 122.319 49.5737 124.484 49.5737C126.649 49.5737 127.808 51.4948 127.808 54.3308C127.808 57.1667 126.649 59.0574 124.484 59.0574ZM124.514 62.5947C129.546 62.5947 132.839 59.0269 132.839 54.3308C132.839 49.6347 129.546 46.0669 124.514 46.0669C119.513 46.0669 116.159 49.6347 116.159 54.3308C116.159 59.0269 119.513 62.5947 124.514 62.5947ZM134.292 62.1068H139.262V46.4938H134.292V62.1068ZM134.292 44.3287H139.262V40.3035H134.292V44.3287ZM141.418 67.2615H146.389V60.4893H146.45C147.426 61.8005 148.859 62.5934 150.872 62.5934C154.958 62.5934 157.672 59.361 157.672 54.299C157.672 49.6029 155.141 46.0351 150.994 46.0351C148.859 46.0351 147.334 46.9804 146.267 48.3831H146.175V46.4925H141.418V67.2615ZM149.591 58.7524C147.456 58.7524 146.236 57.0142 146.236 54.4832C146.236 51.9522 147.334 50.0311 149.499 50.0311C151.634 50.0311 152.64 51.7997 152.64 54.4832C152.64 57.1362 151.481 58.7524 149.591 58.7524ZM165.764 62.5947C169.85 62.5947 172.869 60.826 172.869 57.4107C172.869 53.4159 169.637 52.7146 166.892 52.2572C164.91 51.8912 163.142 51.7388 163.142 50.641C163.142 49.6652 164.087 49.2077 165.307 49.2077C166.679 49.2077 167.624 49.6347 167.807 51.0374H172.381C172.137 47.9575 169.759 46.0364 165.337 46.0364C161.647 46.0364 158.598 47.744 158.598 51.0374C158.598 54.6967 161.495 55.4285 164.209 55.886C166.283 56.2519 168.173 56.4044 168.173 57.8071C168.173 58.8134 167.228 59.3623 165.734 59.3623C164.087 59.3623 163.05 58.5999 162.867 57.0447H158.171C158.324 60.4906 161.19 62.5947 165.764 62.5947ZM179.621 62.5642C181.786 62.5642 183.158 61.7103 184.287 60.1856H184.378V62.1068H189.135V46.4938H184.165V55.2164C184.165 57.0765 183.128 58.3573 181.42 58.3573C179.835 58.3573 179.072 57.4119 179.072 55.7043V46.495H174.132V56.7411C174.132 60.2174 176.023 62.5642 179.621 62.5642ZM191.298 62.1068H196.268V53.3549C196.268 51.4948 197.183 50.1836 198.738 50.1836C200.233 50.1836 200.934 51.1594 200.934 52.8365V62.1068H205.905V53.3549C205.905 51.4948 206.789 50.1836 208.375 50.1836C209.869 50.1836 210.57 51.1594 210.57 52.8365V62.1068H215.541V51.9522C215.541 48.4454 213.772 46.0364 210.235 46.0364C208.222 46.0364 206.545 46.8902 205.325 48.7808H205.264C204.471 47.1037 202.916 46.0364 200.873 46.0364C198.616 46.0364 197.122 47.1037 196.146 48.7198H196.055V46.4938H191.298V62.1068Z" fill="#2F234F"/>
<path fill-rule="evenodd" clip-rule="evenodd" d="M26.0363 76.0833C40.0712 76.0833 51.448 64.7064 51.448 50.6715C51.448 36.6379 40.0712 25.2598 26.0363 25.2598C12.0026 25.2598 0.624512 36.6379 0.624512 50.6715C0.624512 64.7064 12.0026 76.0833 26.0363 76.0833ZM29.9586 44.8942C30.7347 44.1185 31.2633 43.13 31.4775 42.0538C31.6918 40.9777 31.5821 39.8622 31.1623 38.8484C30.7425 37.8345 30.0315 36.968 29.1191 36.3583C28.2068 35.7487 27.1342 35.4233 26.0369 35.4233C24.9396 35.4233 23.867 35.7487 22.9547 36.3583C22.0424 36.968 21.3313 37.8345 20.9115 38.8484C20.4917 39.8622 20.382 40.9777 20.5963 42.0538C20.8106 43.13 21.3392 44.1185 22.1152 44.8942L26.0363 48.8165L29.9586 44.8942ZM31.8136 54.5938C32.5894 55.3697 33.5779 55.8982 34.654 56.1123C35.7301 56.3264 36.8455 56.2166 37.8592 55.7967C38.8729 55.3769 39.7394 54.6659 40.349 53.7536C40.9585 52.8413 41.2839 51.7687 41.2839 50.6715C41.2839 49.5743 40.9585 48.5018 40.349 47.5895C39.7394 46.6772 38.8729 45.9662 37.8592 45.5463C36.8455 45.1265 35.7301 45.0167 34.654 45.2308C33.5779 45.4449 32.5894 45.9733 31.8136 46.7492L27.8926 50.6715L31.8136 54.5938ZM29.9586 64.2948C30.9987 63.2545 31.5831 61.8436 31.5831 60.3725C31.5831 58.9014 30.9987 57.4905 29.9586 56.4502L26.0363 52.5279L22.1152 56.4502C21.105 57.4964 20.5461 58.8975 20.5588 60.3518C20.5715 61.8061 21.1547 63.1973 22.183 64.2257C23.2113 65.2542 24.6024 65.8377 26.0567 65.8506C27.511 65.8635 28.9122 65.3048 29.9586 64.2948ZM12.4143 54.5938C11.3948 53.5493 10.8281 52.145 10.837 50.6855C10.8459 49.2259 11.4296 47.8287 12.4617 46.7966C13.4938 45.7646 14.891 45.1808 16.3506 45.1719C17.8101 45.1631 19.2144 45.7298 20.2589 46.7492L24.1812 50.6715L20.2589 54.5938C19.2186 55.634 17.8077 56.2183 16.3366 56.2183C14.8655 56.2183 13.4546 55.634 12.4143 54.5938Z" fill="#7F57F1"/>
</g>
</g>
</g>
<defs>
<clipPath id="clip0_11_270">
<rect width="216" height="100" fill="white" transform="translate(0.496094 0.896484)"/>
</clipPath>
<clipPath id="clip1_11_270">
<rect width="216" height="100" fill="white" transform="translate(0.496094 0.896484)"/>
</clipPath>
<clipPath id="clip2_11_270">
<rect width="216" height="52.0941" fill="white" transform="translate(0.496094 24.8494)"/>
</clipPath>
</defs>
</svg>
